<?xml version="1.0" encoding="UTF-8"?>
<svg width="204pt" xmlns:xlink="http://www.w3.org/1999/xlink" xmlns="http://www.w3.org/2000/svg" height="112pt" viewBox="0 0 204 112" >
 <g transform="translate(38, 53.1494)" style="fill:#161413; fill-rule:nonzero; stroke:none; stroke-width:1.7; stroke-linecap:butt; stroke-linejoin:miter; stroke-dasharray:none;" >
  <path d="M4.1992 0 C4.1992 0 4.1992 1.7002 4.1992 1.7002 C4.1992 1.7002 0 1.7002 0 1.7002 C0 1.7002 0 0 0 0 C0 0 4.1992 0 4.1992 0 Z" />
 </g>
 <g transform="translate(29.25, 53.1494)" style="fill:#161413; fill-rule:nonzero; stroke:none; stroke-width:1.7; stroke-linecap:butt; stroke-linejoin:miter; stroke-dasharray:none;" >
  <path d="M4.1992 0 C4.1992 0 4.1992 1.7002 4.1992 1.7002 C4.1992 1.7002 0 1.7002 0 1.7002 C0 1.7002 0 0 0 0 C0 0 4.1992 0 4.1992 0 Z" />
 </g>
 <g transform="translate(20.5, 53.1494)" style="fill:#161413; fill-rule:nonzero; stroke:none; stroke-width:1.7; stroke-linecap:butt; stroke-linejoin:miter; stroke-dasharray:none;" >
  <path d="M4.1992 0 C4.1992 0 4.1992 1.7002 4.1992 1.7002 C4.1992 1.7002 0 1.7002 0 1.7002 C0 1.7002 0 0 0 0 C0 0 4.1992 0 4.1992 0 Z" />
 </g>
 <g transform="translate(11.75, 53.1494)" style="fill:#161413; fill-rule:nonzero; stroke:none; stroke-width:1.7; stroke-linecap:butt; stroke-linejoin:miter; stroke-dasharray:none;" >
  <path d="M4.1992 0 C4.1992 0 4.1992 1.7002 4.1992 1.7002 C4.1992 1.7002 0 1.7002 0 1.7002 C0 1.7002 0 0 0 0 C0 0 4.1992 0 4.1992 0 Z" />
 </g>
 <g transform="translate(3, 53.1494)" style="fill:#161413; fill-rule:nonzero; stroke:none; stroke-width:1.7; stroke-linecap:butt; stroke-linejoin:miter; stroke-dasharray:none;" >
  <path d="M4.19922 0 C4.19922 0 4.19922 1.7002 4.19922 1.7002 C4.19922 1.7002 0 1.7002 0 1.7002 C0 1.7002 0 0 0 0 C0 0 4.19922 0 4.19922 0 Z" />
 </g>
 <g transform="translate(42.1992, 54)" style="fill:#161413; fill-rule:nonzero; stroke:none; stroke-width:1.7; stroke-linecap:butt; stroke-linejoin:miter; stroke-dasharray:none;" >
  <path d="M20.8008 33.5 C20.8008 33.5 19.8506 35.1992 19.8506 35.1992 C19.8506 35.1992 0 0.8496 0 0.8496 C0 0.8496 0.5 0 0.5 0 C0.5 0 1.4502 0 1.4502 0 C1.4502 0 20.8008 33.5 20.8008 33.5 Z" />
 </g>
 <g transform="translate(62.0498, 87.5)" style="fill:#161413; fill-rule:nonzero; stroke:none; stroke-width:1.7; stroke-linecap:butt; stroke-linejoin:miter; stroke-dasharray:none;" >
  <path d="M39.6492 0 C39.6492 0 40.6492 1.6992 40.6492 1.6992 C40.6492 1.6992 0 1.6992 0 1.6992 C0 1.6992 0.9502 0 0.9502 0 C0.9502 0 39.6492 0 39.6492 0 Z" />
 </g>
 <g transform="translate(65.9492, 81.5498)" style="fill:#161413; fill-rule:nonzero; stroke:none; stroke-width:1.7; stroke-linecap:butt; stroke-linejoin:miter; stroke-dasharray:none;" >
  <path d="M32.8506 0 C32.8506 0 32.8506 1.7002 32.8506 1.7002 C32.8506 1.7002 0 1.7002 0 1.7002 C0 1.7002 0 0 0 0 C0 0 32.8506 0 32.8506 0 Z" />
 </g>
 <g transform="translate(101.699, 54)" style="fill:#161413; fill-rule:nonzero; stroke:none; stroke-width:1.7; stroke-linecap:butt; stroke-linejoin:miter; stroke-dasharray:none;" >
  <path d="M19.351 0 C19.351 0 20.351 0 20.351 0 C20.351 0 20.851 0.8496 20.851 0.8496 C20.851 0.8496 1 35.1992 1 35.1992 C1 35.1992 0 33.5 0 33.5 C0 33.5 19.351 0 19.351 0 Z" />
 </g>
 <g transform="translate(101.699, 18.7998)" style="fill:#161413; fill-rule:nonzero; stroke:none; stroke-width:1.7; stroke-linecap:butt; stroke-linejoin:miter; stroke-dasharray:none;" >
  <path d="M0 1.7002 C0 1.7002 1 0 1 0 C1 0 20.851 34.3496 20.851 34.3496 C20.851 34.3496 20.351 35.2002 20.351 35.2002 C20.351 35.2002 19.351 35.2002 19.351 35.2002 C19.351 35.2002 0 1.7002 0 1.7002 Z" />
 </g>
 <g transform="translate(98.0498, 25.1494)" style="fill:#161413; fill-rule:nonzero; stroke:none; stroke-width:1.7; stroke-linecap:butt; stroke-linejoin:miter; stroke-dasharray:none;" >
  <path d="M0 0.8506 C0 0.8506 1.4502 0 1.4502 0 C1.4502 0 17.8492 28.4004 17.8492 28.4004 C17.8492 28.4004 16.3992 29.2998 16.3992 29.2998 C16.3992 29.2998 0 0.8506 0 0.8506 Z" />
 </g>
 <g transform="translate(62.0498, 18.7998)" style="fill:#161413; fill-rule:nonzero; stroke:none; stroke-width:1.7; stroke-linecap:butt; stroke-linejoin:miter; stroke-dasharray:none;" >
  <path d="M0.9502 1.7002 C0.9502 1.7002 0 0 0 0 C0 0 40.6492 0 40.6492 0 C40.6492 0 39.6492 1.7002 39.6492 1.7002 C39.6492 1.7002 0.9502 1.7002 0.9502 1.7002 Z" />
 </g>
 <g transform="translate(42.1992, 18.7998)" style="fill:#161413; fill-rule:nonzero; stroke:none; stroke-width:1.7; stroke-linecap:butt; stroke-linejoin:miter; stroke-dasharray:none;" >
  <path d="M1.4502 35.2002 C1.4502 35.2002 0.5 35.2002 0.5 35.2002 C0.5 35.2002 0 34.3496 0 34.3496 C0 34.3496 19.8506 0 19.8506 0 C19.8506 0 20.8008 1.7002 20.8008 1.7002 C20.8008 1.7002 1.4502 35.2002 1.4502 35.2002 Z" />
 </g>
 <g transform="translate(48.7998, 25.1494)" style="fill:#161413; fill-rule:nonzero; stroke:none; stroke-width:1.7; stroke-linecap:butt; stroke-linejoin:miter; stroke-dasharray:none;" >
  <path d="M1.5 29.2998 C1.5 29.2998 0 28.4004 0 28.4004 C0 28.4004 16.4502 0 16.4502 0 C16.4502 0 17.8994 0.8506 17.8994 0.8506 C17.8994 0.8506 1.5 29.2998 1.5 29.2998 Z" />
 </g>
 <g transform="translate(154.902, 45.7158)" style="fill:#161413; fill-rule:evenodd; stroke:none; stroke-width:1.7; stroke-linecap:butt; stroke-linejoin:miter; stroke-dasharray:none;" >
  <path d="M13.152 5.4238 C13.128 1.9922 10.776 0 6.744 0 C2.904 0 0.528 1.9678 0.528 5.1358 C0.528 7.2725 1.656 8.6162 3.96 9.2158 C3.96 9.2158 8.304 10.3682 8.304 10.3682 C10.512 10.9444 11.52 11.8321 11.52 13.2002 C11.52 14.1358 11.016 15.0957 10.272 15.624 C9.576 16.1045 8.472 16.3682 7.056 16.3682 C5.16 16.3682 3.864 15.9121 3.024 14.9043 C2.376 14.1358 2.088 13.2959 2.112 12.2158 C2.112 12.2158 0 12.2158 0 12.2158 C0.024 13.8242 0.336 14.8799 1.032 15.8399 C2.232 17.4727 4.248 18.336 6.912 18.336 C9 18.336 10.704 17.8565 11.832 16.9922 C13.008 16.0567 13.752 14.4961 13.752 12.9844 C13.752 10.8242 12.408 9.2403 10.032 8.5918 C10.032 8.5918 5.64 7.416 5.64 7.416 C3.528 6.8399 2.76 6.168 2.76 4.8242 C2.76 3.0479 4.32 1.8721 6.672 1.8721 C9.456 1.8721 11.016 3.1446 11.04 5.4238 C11.04 5.4238 13.152 5.4238 13.152 5.4238 Z" />
 </g>
 <g transform="translate(122.05, 53.1494)" style="fill:#161413; fill-rule:nonzero; stroke:none; stroke-width:1.7; stroke-linecap:butt; stroke-linejoin:miter; stroke-dasharray:none;" >
  <path d="M30.399 0 C30.399 0 30.399 1.7002 30.399 1.7002 C30.399 1.7002 0.5 1.7002 0.5 1.7002 C0.5 1.7002 0 0.8506 0 0.8506 C0 0.8506 0.5 0 0.5 0 C0.5 0 30.399 0 30.399 0 Z" />
 </g>
 <g transform="translate(197.149, 53.1494)" style="fill:#161413; fill-rule:nonzero; stroke:none; stroke-width:1.7; stroke-linecap:butt; stroke-linejoin:miter; stroke-dasharray:none;" >
  <path d="M4.3 0 C4.3 0 4.3 1.7002 4.3 1.7002 C4.3 1.7002 0 1.7002 0 1.7002 C0 1.7002 0 0 0 0 C0 0 4.3 0 4.3 0 Z" />
 </g>
 <g transform="translate(188.35, 53.1494)" style="fill:#161413; fill-rule:nonzero; stroke:none; stroke-width:1.7; stroke-linecap:butt; stroke-linejoin:miter; stroke-dasharray:none;" >
  <path d="M4.25 0 C4.25 0 4.25 1.7002 4.25 1.7002 C4.25 1.7002 0 1.7002 0 1.7002 C0 1.7002 0 0 0 0 C0 0 4.25 0 4.25 0 Z" />
 </g>
 <g transform="translate(179.5, 53.1494)" style="fill:#161413; fill-rule:nonzero; stroke:none; stroke-width:1.7; stroke-linecap:butt; stroke-linejoin:miter; stroke-dasharray:none;" >
  <path d="M4.25 0 C4.25 0 4.25 1.7002 4.25 1.7002 C4.25 1.7002 0 1.7002 0 1.7002 C0 1.7002 0 0 0 0 C0 0 4.25 0 4.25 0 Z" />
 </g>
 <g transform="translate(170.699, 53.1494)" style="fill:#161413; fill-rule:nonzero; stroke:none; stroke-width:1.7; stroke-linecap:butt; stroke-linejoin:miter; stroke-dasharray:none;" >
  <path d="M4.25 0 C4.25 0 4.25 1.7002 4.25 1.7002 C4.25 1.7002 0 1.7002 0 1.7002 C0 1.7002 0 0 0 0 C0 0 4.25 0 4.25 0 Z" />
 </g>
 <g transform="translate(177.5, 3.75)" style="fill:none; stroke:#161413; stroke-width:1.7; stroke-linecap:butt; stroke-linejoin:miter; stroke-dasharray:none;" >
  <path d="M0 0 C0 0 6.25 0 6.25 0 C6.25 0 6.25 99.75 6.25 99.75 C6.25 99.75 0 99.75 0 99.75 " />
 </g>
 <g transform="translate(191.76, 99.2979)" style="fill:#161413; fill-rule:evenodd; stroke:none; stroke-width:1.7; stroke-linecap:butt; stroke-linejoin:miter; stroke-dasharray:none;" >
  <path d="M0 0.2705 C0 0.2705 0 9.7021 0 9.7021 C0 9.7021 1.512 9.7021 1.512 9.7021 C1.512 9.7021 1.512 4.5001 1.512 4.5001 C1.512 2.5741 2.52 1.3141 4.068 1.3141 C5.256 1.3141 6.012 2.0341 6.012 3.1681 C6.012 3.1681 6.012 9.7021 6.012 9.7021 C6.012 9.7021 7.506 9.7021 7.506 9.7021 C7.506 9.7021 7.506 2.5741 7.506 2.5741 C7.506 1.0081 6.336 0 4.518 0 C3.114 0 2.214 0.54 1.386 1.8541 C1.386 1.8541 1.386 0.2705 1.386 0.2705 C1.386 0.2705 0 0.2705 0 0.2705 Z" />
 </g>
 <g transform="translate(24.75, 3.75)" style="fill:none; stroke:#161413; stroke-width:1.7; stroke-linecap:butt; stroke-linejoin:miter; stroke-dasharray:none;" >
  <path d="M6.25 99.75 C6.25 99.75 0 99.75 0 99.75 C0 99.75 0 0 0 0 C0 0 6.25 0 6.25 0 " />
 </g>
</svg>
